# xmcd CD database file
# Copyright (C) 1996 Ti Kan
#
# Track frame offsets:
#	150
#	22227
#	35585
#	48682
#	58882
#	77837
#	88892
#	104485
#	117920
#	135085
#	145127
#	157495
#	176535
#	189817
#	210405
#	228297
#	254777
#
# Disc length: 3502 seconds
#
# Revision: 1
# Processed by: cddbd v1.4b41PL1 Copyright (c) Steve Scherf et al.
# Submitted via: EasyCD 2.21 - (C) 1996 Greg Leichner
#
DISCID=f80dac11
DTITLE=The Residents - Lousiana's Lick
DYEAR=1900
DGENRE=
TTITLE0=The Aging Musician
TTITLE1=Harry the Head
TTITLE2=Perfect Goat
TTITLE3=Big Bubble
TTITLE4=Smack Your Lips
TTITLE5=Hellno
TTITLE6=Mousetrap
TTITLE7=Shorty's Lament
TTITLE8=This Is a Man's Man's World
TTITLE9=Dumbo the Clown
TTITLE10=Hello Skinny
TTITLE11=Mahogany Wood
TTITLE12=Boo Who?
TTITLE13=Satisfaction
TTITLE14=Beyond the Valley of a Day in the Life
TTITLE15=Seasoned Greetings
TTITLE16=Santa Dog
EXTD=
EXTT0=
EXTT1=
EXTT2=
EXTT3=
EXTT4=
EXTT5=
EXTT6=
EXTT7=
EXTT8=
EXTT9=
EXTT10=
EXTT11=
EXTT12=
EXTT13=
EXTT14=
EXTT15=
EXTT16=
PLAYORDER=
